<svg width="1731" height="489" viewBox="0 0 1731 489" fill="none" xmlns="http://www.w3.org/2000/svg">
<path d="M1592.54 174.054C1588.33 174.054 1584.24 174.92 1580.62 176.964L1466.05 242.962C1458.64 247.225 1454.13 255.271 1454.13 263.834V395.591C1454.13 404.147 1458.64 412.183 1466.05 416.456L1495.97 433.686C1510.51 440.832 1515.87 440.72 1522.48 440.72C1544 440.72 1556.29 427.693 1556.29 405.054V274.993C1556.29 273.155 1554.7 271.84 1552.89 271.84H1538.54C1536.7 271.84 1535.13 273.155 1535.13 274.993V405.054C1535.13 415.087 1524.65 425.18 1507.65 416.699L1476.51 398.501C1475.41 397.904 1474.56 396.849 1474.56 395.591V263.831C1474.56 262.583 1475.4 261.311 1476.51 260.677L1590.84 194.925C1591.35 194.624 1591.94 194.466 1592.54 194.466C1593.14 194.466 1593.72 194.624 1594.24 194.925L1708.57 260.681C1709.66 261.335 1710.52 262.546 1710.52 263.837V395.594C1710.52 396.852 1709.88 398.14 1708.81 398.747L1594.24 464.503C1593.26 465.086 1591.91 465.086 1590.84 464.503L1561.4 447.034C1560.95 446.791 1560.45 446.664 1559.94 446.664C1559.43 446.664 1558.93 446.791 1558.48 447.034C1550.36 451.627 1548.83 452.16 1541.21 454.797C1539.34 455.451 1536.49 456.466 1542.19 459.653L1580.62 482.215C1584.24 484.3 1588.36 485.389 1592.54 485.371C1596.72 485.397 1600.84 484.309 1604.46 482.218L1719.03 416.459C1726.44 412.16 1730.95 404.15 1730.95 395.594V263.834C1730.95 255.275 1726.44 247.242 1719.03 242.969L1604.46 176.971C1600.87 174.924 1596.75 174.057 1592.54 174.057L1592.54 174.054Z" fill="#83CD29"/>
<path d="M1623.19 268.201C1590.56 268.201 1571.13 282.052 1571.13 305.085C1571.13 330.068 1590.42 336.934 1621.73 340.024C1659.19 343.683 1662.11 349.17 1662.11 356.525C1662.11 369.283 1651.91 374.722 1627.81 374.722C1597.53 374.722 1590.88 367.182 1588.65 352.158C1588.38 350.546 1587.14 349.244 1585.48 349.244H1570.65C1568.82 349.244 1567.24 350.815 1567.24 352.643C1567.24 371.876 1577.73 394.62 1627.81 394.62C1664.06 394.62 1684.97 380.425 1684.97 355.554C1684.97 330.901 1668.08 324.281 1632.92 319.644C1597.38 314.953 1594 312.657 1594 304.357C1594 297.504 1596.87 288.338 1623.19 288.338C1646.7 288.338 1655.39 293.397 1658.95 309.21C1659.26 310.694 1660.57 311.877 1662.11 311.877H1676.95C1677.86 311.877 1678.75 311.318 1679.38 310.663C1680 309.965 1680.44 309.18 1680.35 308.239C1678.05 281.01 1659.85 268.201 1623.19 268.201V268.201Z" fill="#83CD29"/>
<path d="M918.978 1.29164C917.698 1.29248 916.439 1.62606 915.327 2.25952C914.222 2.90456 913.304 3.82567 912.665 4.9321C912.025 6.03852 911.685 7.29209 911.679 8.56931V194.194C911.679 196.015 910.831 197.647 909.248 198.561C908.473 199.012 907.592 199.249 906.694 199.249C905.797 199.249 904.915 199.012 904.14 198.561L873.733 181.092C871.515 179.812 868.998 179.138 866.435 179.138C863.873 179.138 861.356 179.812 859.138 181.092L737.756 250.972C733.219 253.585 730.46 258.607 730.46 263.834V403.597C730.46 408.818 733.223 413.6 737.756 416.213L859.138 486.096C861.355 487.38 863.872 488.056 866.435 488.056C868.999 488.056 871.516 487.38 873.733 486.096L995.115 416.213C997.337 414.937 999.182 413.099 1000.46 410.884C1001.75 408.668 1002.42 406.155 1002.41 403.597V55.1592C1002.41 52.5416 1001.71 49.9717 1000.39 47.7119C999.062 45.4522 997.16 43.5836 994.874 42.2968L922.626 2.01671C921.494 1.38606 920.236 1.27477 918.978 1.29164V1.29164ZM138.144 175.753C135.831 175.844 133.654 176.249 131.578 177.45L10.1932 247.333C7.96963 248.607 6.12355 250.445 4.84222 252.661C3.56089 254.877 2.8899 257.391 2.89734 259.949L3.14076 447.519C3.14076 450.126 4.48971 452.551 6.78867 453.826C7.89084 454.486 9.15244 454.835 10.4383 454.835C11.7241 454.835 12.9857 454.486 14.0879 453.826L86.0892 412.578C90.65 409.873 93.6285 405.172 93.6285 399.958V312.363C93.6285 307.136 96.3838 302.34 100.928 299.744L131.575 282.032C133.791 280.746 136.311 280.076 138.874 280.089C141.376 280.089 143.945 280.713 146.17 282.032L176.82 299.744C179.046 301.017 180.894 302.855 182.176 305.072C183.458 307.288 184.129 309.804 184.12 312.363V399.955C184.12 405.169 187.128 409.903 191.659 412.574L263.66 453.826C264.762 454.486 266.024 454.835 267.31 454.835C268.596 454.835 269.857 454.486 270.959 453.826C272.069 453.185 272.99 452.265 273.631 451.158C274.272 450.051 274.609 448.795 274.611 447.516L274.847 259.949C274.862 257.39 274.194 254.873 272.912 252.656C271.63 250.439 269.78 248.602 267.551 247.333L146.17 177.45C144.118 176.249 141.934 175.848 139.604 175.753H138.144ZM1228.88 177.45C1226.34 177.45 1223.86 178.09 1221.58 179.392L1100.2 249.275C1097.98 250.551 1096.13 252.389 1094.85 254.604C1093.57 256.82 1092.9 259.334 1092.9 261.892V401.655C1092.9 406.912 1095.87 411.674 1100.44 414.274L1220.85 482.7C1225.3 485.23 1230.73 485.422 1235.2 482.936L1308.18 442.417C1310.49 441.135 1312.06 438.741 1312.07 436.11C1312.08 434.83 1311.75 433.569 1311.11 432.459C1310.47 431.349 1309.54 430.431 1308.42 429.801L1186.31 359.918C1184.02 358.616 1182.42 355.982 1182.42 353.365V309.692C1182.42 307.079 1184.04 304.684 1186.31 303.382L1224.26 281.543C1225.37 280.902 1226.62 280.565 1227.91 280.565C1229.19 280.565 1230.45 280.902 1231.56 281.543L1269.5 303.382C1270.61 304.019 1271.53 304.938 1272.17 306.046C1272.82 307.153 1273.15 308.41 1273.15 309.689V344.145C1273.15 345.423 1273.48 346.68 1274.12 347.788C1274.76 348.895 1275.69 349.814 1276.8 350.451C1279.07 351.763 1281.83 351.766 1284.09 350.451L1356.83 308.239C1359.05 306.958 1360.89 305.118 1362.17 302.903C1363.45 300.688 1364.13 298.176 1364.13 295.619V261.895C1364.13 256.685 1361.36 251.892 1356.83 249.275L1236.18 179.392C1233.96 178.112 1231.44 177.443 1228.88 177.453V177.45ZM865.947 281.789C866.583 281.789 867.326 281.944 867.894 282.271L909.492 306.293C910.621 306.944 911.439 308.148 911.439 309.446V357.489C911.439 358.794 910.628 359.995 909.492 360.646L867.894 384.668C867.339 384.984 866.71 385.151 866.07 385.151C865.431 385.151 864.802 384.984 864.246 384.668L822.652 360.646C821.519 359.992 820.705 358.794 820.705 357.489V309.446C820.705 308.144 821.523 306.95 822.652 306.293L864.246 282.274C864.758 281.957 865.348 281.79 865.95 281.792V281.789H865.947Z" fill="#404137"/>
<path d="M502.776 176.721C500.247 176.721 497.745 177.362 495.48 178.664L374.098 248.304C369.558 250.911 366.799 255.943 366.799 261.163V400.926C366.799 406.153 369.561 410.929 374.098 413.546L495.48 483.426C497.696 484.71 500.214 485.387 502.777 485.387C505.341 485.387 507.858 484.71 510.075 483.426L631.456 413.546C633.679 412.269 635.523 410.43 636.804 408.214C638.086 405.998 638.757 403.484 638.752 400.926V261.163C638.752 255.936 635.993 250.911 631.456 248.304L510.075 178.664C507.856 177.385 505.338 176.715 502.776 176.721V176.721ZM1228.63 301.443C1228.15 301.443 1227.61 301.443 1227.18 301.686L1203.83 315.274C1203.39 315.515 1203.03 315.866 1202.77 316.292C1202.51 316.719 1202.37 317.205 1202.37 317.702V344.391C1202.37 345.396 1202.95 346.317 1203.83 346.819L1227.18 360.164C1228.05 360.67 1228.99 360.67 1229.85 360.164L1253.2 346.816C1253.64 346.573 1254 346.222 1254.26 345.797C1254.51 345.371 1254.65 344.887 1254.66 344.391V317.698C1254.65 317.202 1254.51 316.718 1254.26 316.293C1254 315.867 1253.64 315.516 1253.2 315.274L1229.85 301.683C1229.42 301.43 1229.12 301.447 1228.63 301.447V301.443Z" fill="#83CD29"/>
</svg>
